<?xml version="1.0" encoding="utf-8"?>
<!-- Generator: Adobe Illustrator 27.5.0, SVG Export Plug-In . SVG Version: 6.00 Build 0)  -->
<svg version="1.1" id="Layer_1" xmlns="http://www.w3.org/2000/svg" xmlns:xlink="http://www.w3.org/1999/xlink" x="0px" y="0px"
	 viewBox="0 0 2372 1898" style="enable-background:new 0 0 2372 1898;" xml:space="preserve">
<g>
	<g>
		<defs>
			<rect id="SVGID_1_" width="2371.708" height="1897.367"/>
		</defs>
		<use xlink:href="#SVGID_1_"  style="overflow:visible;fill:#FFFFFF;"/>
		<clipPath id="SVGID_00000135662800448261782010000004802657218492890536_">
			<use xlink:href="#SVGID_1_"  style="overflow:visible;"/>
		</clipPath>
		<g style="clip-path:url(#SVGID_00000135662800448261782010000004802657218492890536_);">
			
				<linearGradient id="SVGID_00000095330336976538054640000010784377803396147088_" gradientUnits="userSpaceOnUse" x1="295.8156" y1="-96.4593" x2="295.8156" y2="1890.6158">
				<stop  offset="0" style="stop-color:#4393E1"/>
				<stop  offset="0.0853" style="stop-color:#5B90E1"/>
				<stop  offset="0.2659" style="stop-color:#9987E0"/>
				<stop  offset="0.5195" style="stop-color:#F979DF"/>
				<stop  offset="0.789" style="stop-color:#FCAC7E"/>
				<stop  offset="1" style="stop-color:#FED630"/>
			</linearGradient>
			<path style="fill:url(#SVGID_00000095330336976538054640000010784377803396147088_);" d="M479.648,1295.33
				c-59.395,20.647-95.128,204.89-109.799,125.548c-12.579-68.019,31.598-234.45,20.266-325.509
				c-2.965-23.828-34.186-25.41-40.78-1.667c-0.198,0.715-16.947,154.055-34.174,199.572
				c-24.306,64.217-10.731-90.199-21.294-228.403c-1.708-22.354-18.169-32.269-32.114-27.576
				c-19.831,6.673-14.239,27.951-13.233,60.342c1.982,63.858,16.93,210.27-2.235,201.129
				c-19.165-9.14-22.608-196.394-40.165-233.843c-8.061-17.191-37.986-9.796-34.938,22.934
				c0.076,0.811,9.995,110.788,10.057,111.556c15.504,191.256-26.837,141.076-57.561,4.266c-3.33-14.821-8.742-27.842-23.755-25.528
				c-38.775,5.981,9.011,131.266,29.056,212.363c17.501,70.807,52.21,130.131,54.215,224.646
				c1.687,241.93-14.992,464.027-21.462,706.295l230.049-18.692c-15.956-105.227-106.867-593.237-26.349-668.634
				c54.867-51.378,109.52-272.191,137.902-317.325C514.491,1299.06,492.994,1290.69,479.648,1295.33z M326.323,1448.717
				c-7.014,22.693-24.345,52.753-51.789,97.048c-30.735-33.467-71.086-74.346-73.962-114.231
				c-2.577-35.762,40.608-52.058,65.439,9.339c1.548-12.998,8.066-29.556,18.452-37.049
				C307.314,1387.341,340.996,1401.247,326.323,1448.717z"/>
			
				<linearGradient id="SVGID_00000183248954849010217950000006600894546719116211_" gradientUnits="userSpaceOnUse" x1="1914.5486" y1="-96.4595" x2="1914.5486" y2="1890.6254">
				<stop  offset="0" style="stop-color:#4393E1"/>
				<stop  offset="0.0853" style="stop-color:#5B90E1"/>
				<stop  offset="0.2659" style="stop-color:#9987E0"/>
				<stop  offset="0.5195" style="stop-color:#F979DF"/>
				<stop  offset="0.789" style="stop-color:#FCAC7E"/>
				<stop  offset="1" style="stop-color:#FED630"/>
			</linearGradient>
			<path style="opacity:0.5;fill:url(#SVGID_00000183248954849010217950000006600894546719116211_);" d="M2087.609,1260.504
				c-54.326,22.057-78.818,195.331-96.263,122.146c-14.956-62.742,18.249-219.83,3.357-304.085
				c-3.897-22.048-33.046-22.033-38.055,0.391c-0.151,0.676-8.438,144.266-22.31,187.473
				c-19.574,60.958-14.293-83.484-30.717-211.678c-2.656-20.735-18.457-29.183-31.219-24.148
				c-18.149,7.16-11.928,26.707-9.447,56.822c4.89,59.371,25.788,194.999,7.506,187.401
				c-18.282-7.597-30.414-181.807-48.548-215.844c-8.325-15.624-35.84-7.312-31.442,23.023c0.11,0.751,14.588,102.69,14.683,103.403
				c23.554,177.361-18.266,132.651-53.398,6.716c-3.807-13.643-9.468-25.51-23.338-22.639
				c-35.822,7.418,14.649,121.807,37.18,196.37c19.672,65.101,54.821,118.691,61.194,206.609
				c13.102,225.209,8.157,432.823,13.68,658.735l213.334-28.372c-19.874-97.228-127.794-547.336-56.407-621.385
				c48.644-50.459,89.012-258.688,113.291-302.071C2120.233,1262.317,2099.816,1255.547,2087.609,1260.504z M1952.142,1410.648
				c-5.45,21.466-20.156,50.284-43.601,92.841c-30.216-29.7-69.74-65.844-74.319-102.849c-4.104-33.179,35.334-50.413,61.383,5.578
				c0.822-12.178,6.102-27.907,15.417-35.38C1931.515,1354.4,1963.543,1365.744,1952.142,1410.648z"/>
			
				<linearGradient id="SVGID_00000064353925914151489840000006111882002070801821_" gradientUnits="userSpaceOnUse" x1="1223.4631" y1="-96.4596" x2="1223.4631" y2="1890.6229">
				<stop  offset="0" style="stop-color:#4393E1"/>
				<stop  offset="0.0853" style="stop-color:#5B90E1"/>
				<stop  offset="0.2659" style="stop-color:#9987E0"/>
				<stop  offset="0.5195" style="stop-color:#F979DF"/>
				<stop  offset="0.789" style="stop-color:#FCAC7E"/>
				<stop  offset="1" style="stop-color:#FED630"/>
			</linearGradient>
			<path style="opacity:0.5;fill:url(#SVGID_00000064353925914151489840000006111882002070801821_);" d="M1432.079,787.878
				c-69.714,19.509-123.85,228.677-135.077,136.468c-9.625-79.05,52.948-267.153,46.39-372.588
				c-1.715-27.59-37.478-31.624-46.74-4.809c-0.279,0.808-30.407,175.813-53.433,226.892
				c-32.487,72.064-5.929-104.405-8.257-263.959c-0.376-25.808-18.586-38.368-34.943-33.966
				c-23.26,6.261-18.346,31.106-19.49,68.397c-2.255,73.517,4.529,242.812-16.843,230.949
				c-21.372-11.861-12.038-227.271-29.554-271.549c-8.042-20.324-42.952-13.952-41.773,23.874
				c0.031,0.937,3.621,128.01,3.639,128.897c4.241,220.863-40.85,160.2-66.443,0.817c-2.774-17.267-8.069-32.614-25.485-31.019
				c-44.978,4.121,1.038,151.471,18.314,246.079c15.085,82.602,50.756,153.232,46.352,261.978
				c-15.234,278.11-50.162,532.126-74.791,810.046l265.665-5.151c-10.865-122.043-80.69-689.245,17.181-770.165
				c66.692-55.141,145.162-304.987,180.979-354.835C1471.85,794.636,1447.743,783.493,1432.079,787.878z M1245.014,953.244
				c-9.671,25.577-31.718,58.887-66.397,107.838c-32.941-40.637-76.405-90.473-76.878-136.507
				c-0.423-41.275,50.356-56.936,74.53,15.376c2.702-14.826,11.366-33.389,23.832-41.262
				C1227.527,881.37,1265.243,899.739,1245.014,953.244z"/>
			
				<linearGradient id="SVGID_00000073710750827584156670000006877623509847382924_" gradientUnits="userSpaceOnUse" x1="1761.1801" y1="-96.4604" x2="1761.1801" y2="1890.6219">
				<stop  offset="0" style="stop-color:#4393E1"/>
				<stop  offset="0.0853" style="stop-color:#5B90E1"/>
				<stop  offset="0.2659" style="stop-color:#9987E0"/>
				<stop  offset="0.5195" style="stop-color:#F979DF"/>
				<stop  offset="0.789" style="stop-color:#FCAC7E"/>
				<stop  offset="1" style="stop-color:#FED630"/>
			</linearGradient>
			<path style="fill:url(#SVGID_00000073710750827584156670000006877623509847382924_);" d="M2011.391,839.139
				c-71.049,13.879-141.718,218.056-145.545,125.245c-3.281-79.567,74.115-262.07,75.999-367.693
				c0.494-27.639-34.832-34.516-46.207-8.527c-0.343,0.783-44.352,172.823-71.384,221.9
				c-38.139,69.239,2.428-104.546,12.851-263.775c1.686-25.755-15.462-39.731-32.119-36.647
				c-23.686,4.383-20.772,29.542-24.89,66.622c-8.119,73.102-14.878,242.398-35.235,228.867
				c-20.357-13.531,6.152-227.507-7.772-273.042c-6.392-20.903-41.701-17.339-43.546,20.461
				c-0.046,0.936-6.614,127.89-6.668,128.776c-13.413,220.496-53.514,156.425-66.296-4.493
				c-1.386-17.433-5.439-33.153-22.926-32.955c-45.164,0.515-11.063,151.069-1.398,246.755
				c8.439,83.544,38.356,156.797,25.28,264.843c-37.397,276.005-92.501,526.42-139.248,801.484l265.228,16.084
				c-1.083-122.521-25.385-693.487,78.637-766.333c70.883-49.638,169.057-292.42,208.741-339.248
				C2050.495,849.052,2027.356,836.02,2011.391,839.139z M1811.716,989.037c-11.682,24.723-36.32,56.166-74.797,102.19
				c-29.59-43.139-68.935-96.286-65.731-142.212c2.876-41.177,54.743-52.732,73.064,21.279
				c3.877-14.563,13.996-32.374,27.051-39.226C1800.026,915.996,1836.154,937.319,1811.716,989.037z"/>
			
				<linearGradient id="SVGID_00000129171732187265381930000006055093973261501871_" gradientUnits="userSpaceOnUse" x1="561.834" y1="-96.4603" x2="561.834" y2="1890.6177">
				<stop  offset="0" style="stop-color:#4393E1"/>
				<stop  offset="0.0853" style="stop-color:#5B90E1"/>
				<stop  offset="0.2659" style="stop-color:#9987E0"/>
				<stop  offset="0.5195" style="stop-color:#F979DF"/>
				<stop  offset="0.789" style="stop-color:#FCAC7E"/>
				<stop  offset="1" style="stop-color:#FED630"/>
			</linearGradient>
			<path style="opacity:0.7;fill:url(#SVGID_00000129171732187265381930000006055093973261501871_);" d="M322.931,988.725
				c32.676,51.961,95.594,306.17,158.759,365.318c92.696,86.801-11.965,648.618-30.334,769.76l264.842,21.519
				c-7.448-278.909-26.649-534.595-24.708-813.116c2.308-108.809,42.266-177.106,62.415-258.622
				c23.077-93.362,78.09-237.594,33.451-244.481c-17.284-2.665-23.516,12.326-27.349,29.389
				c-35.371,157.502-84.116,215.27-66.266-4.911c0.072-0.884,11.49-127.494,11.578-128.428c3.51-37.681-30.942-46.194-40.221-26.403
				c-20.213,43.113-24.177,258.688-46.24,269.21c-22.063,10.522-4.855-158.032-2.573-231.549
				c1.157-37.291,7.595-61.786-15.236-69.469c-16.055-5.403-35.004,6.012-36.97,31.747c-12.16,159.106,3.467,336.877-24.516,262.947
				c-19.833-52.401-39.114-228.931-39.343-229.755c-7.591-27.334-43.535-25.513-46.947,1.919
				c-13.046,104.831,37.812,296.433,23.33,374.74c-16.891,91.341-58.028-120.767-126.406-144.537
				C334.833,958.661,310.086,968.297,322.931,988.725z M574.903,1088.905c11.957,8.626,19.46,27.688,21.242,42.653
				c28.586-70.684,78.303-51.923,75.337-10.752c-3.311,45.917-49.765,92.978-85.148,131.508
				c-31.594-50.996-51.547-85.601-59.621-111.727C509.82,1085.938,548.596,1069.929,574.903,1088.905z"/>
			
				<linearGradient id="SVGID_00000059995404708527864380000007356415420581870211_" gradientUnits="userSpaceOnUse" x1="860.9498" y1="-96.4599" x2="860.9498" y2="1890.626">
				<stop  offset="0" style="stop-color:#4393E1"/>
				<stop  offset="0.0853" style="stop-color:#5B90E1"/>
				<stop  offset="0.2659" style="stop-color:#9987E0"/>
				<stop  offset="0.5195" style="stop-color:#F979DF"/>
				<stop  offset="0.789" style="stop-color:#FCAC7E"/>
				<stop  offset="1" style="stop-color:#FED630"/>
			</linearGradient>
			<path style="fill:url(#SVGID_00000059995404708527864380000007356415420581870211_);" d="M630.422,1279.126
				c33.809,41.068,115.882,252.659,176.691,296.548c89.239,64.408,61.129,558.871,58.677,665.026l230.028-10.661
				c-37.111-238.931-81.768-456.605-110.765-696.235c-9.995-93.787,16.833-156.894,25.178-229.183
				c9.557-82.795,40.966-212.834,1.836-213.839c-15.151-0.388-18.856,13.184-20.273,28.273
				c-13.064,139.283-48.604,194.308-57.503,3.075c-0.036-0.768-4.16-110.86-4.187-111.672
				c-1.133-32.778-31.684-36.302-37.482-18.268c-12.628,39.286,7.699,225.031-10.107,236.505
				c-17.807,11.474-21.573-135.311-27.706-198.756c-3.11-32.182-0.274-53.947-20.745-58.038
				c-14.396-2.877-29.428,9.021-28.285,31.36c7.065,138.107,40.071,289.198,7.878,228.729
				c-22.818-42.86-58.828-192.483-59.115-193.166c-9.536-22.661-40.231-17.138-40.145,6.818
				c0.328,91.549,65.141,250.651,61.315,319.558c-4.463,80.377-63.178-97.423-124.573-110.327
				C637.343,1251.973,617.13,1262.981,630.422,1279.126z M858.047,1337.499c11.228,6.098,19.776,21.658,22.956,34.325
				c16.79-63.908,61.592-53.254,63.575-17.537c2.21,39.835-32.54,85.403-58.714,122.419c-32.773-40.357-53.734-67.908-63.552-89.475
				C801.774,1342.114,833.344,1324.083,858.047,1337.499z"/>
			
				<linearGradient id="SVGID_00000067223516780594745850000010175002814647971258_" gradientUnits="userSpaceOnUse" x1="2163.7856" y1="-96.4565" x2="2163.7856" y2="1890.619">
				<stop  offset="0" style="stop-color:#4393E1"/>
				<stop  offset="0.0853" style="stop-color:#5B90E1"/>
				<stop  offset="0.2659" style="stop-color:#9987E0"/>
				<stop  offset="0.5195" style="stop-color:#F979DF"/>
				<stop  offset="0.789" style="stop-color:#FCAC7E"/>
				<stop  offset="1" style="stop-color:#FED630"/>
			</linearGradient>
			<path style="opacity:0.8;fill:url(#SVGID_00000067223516780594745850000010175002814647971258_);" d="M1998.65,1476.705
				c18.829,36.972,45.69,211.938,84.607,255.606c57.111,64.084-47.592,435.915-67.342,516.347l176.978,30.631
				c11.987-188.214,14.646-361.51,32.931-548.889c8.186-73.109,39.249-116.651,57.781-170.297
				c21.226-61.444,67.052-155.188,37.422-162.544c-11.474-2.848-16.582,6.864-20.202,18.117
				c-33.412,103.873-69.748,139.79-44.311-7.346c0.102-0.591,15.507-85.128,15.623-85.751c4.659-25.153-18.014-32.983-25.467-20.226
				c-16.235,27.791-32.044,172.673-47.538,178.411c-15.494,5.739,6.365-106.681,12.382-156.033
				c3.053-25.033,8.879-41.131-6.022-47.694c-10.479-4.616-23.931,1.913-26.824,19.118c-17.885,106.368-18.2,226.994-32.531,175.52
				c-10.157-36.485-12.376-156.499-12.481-157.068c-3.444-18.864-27.751-19.829-31.721-1.57
				c-15.172,69.776,7.385,201.861-7.136,253.694c-16.939,60.461-31.703-84.837-76.286-105.006
				C2008.496,1457.191,1991.248,1462.169,1998.65,1476.705z M2162.169,1559.504c7.523,6.536,11.413,19.826,11.7,30.008
				c23.552-45.841,55.878-30.181,51.371-2.646c-5.027,30.71-39.169,59.559-65.337,83.34c-18.161-36.256-29.483-60.769-33.327-78.848
				C2118.537,1553.539,2145.617,1545.126,2162.169,1559.504z"/>
			
				<linearGradient id="SVGID_00000182530387746628613030000012836035394085265817_" gradientUnits="userSpaceOnUse" x1="1416.5562" y1="-96.4597" x2="1416.5562" y2="1890.6143">
				<stop  offset="0" style="stop-color:#4393E1"/>
				<stop  offset="0.0853" style="stop-color:#5B90E1"/>
				<stop  offset="0.2659" style="stop-color:#9987E0"/>
				<stop  offset="0.5195" style="stop-color:#F979DF"/>
				<stop  offset="0.789" style="stop-color:#FCAC7E"/>
				<stop  offset="1" style="stop-color:#FED630"/>
			</linearGradient>
			<path style="opacity:0.8;fill:url(#SVGID_00000182530387746628613030000012836035394085265817_);" d="M1199.3,1198.303
				c23.673,48.941,54.156,278.879,103.964,337.133c73.095,85.489-74.072,569.79-102.109,674.628l231.026,44.887
				c20.766-246.247,28.91-473.202,57.903-718.186c12.691-95.557,54.556-151.762,80.277-221.545
				c29.459-79.924,92.016-201.499,53.396-211.933c-14.954-4.039-21.907,8.546-26.953,23.191
				c-46.565,135.18-95.133,181.257-57.852-10.814c0.15-0.772,22.604-111.105,22.773-111.918c6.78-32.826-22.712-43.694-32.82-27.182
				c-22.016,35.972-46.623,225.349-67.076,232.45c-20.452,7.101,11.208-139.588,20.418-204.079
				c4.672-32.713,12.738-53.644-6.607-62.644c-13.603-6.328-31.402,1.863-35.654,24.325
				c-26.29,138.865-29.948,296.884-47.339,229.064c-12.325-48.07-12.005-205.354-12.125-206.101
				c-4.005-24.806-35.823-26.723-41.515-2.91c-21.753,91.002,4.246,264.646-16.172,332.16
				c-23.817,78.75-39.25-111.993-97.114-139.615C1212.722,1173.005,1189.993,1179.063,1199.3,1198.303z M1411.291,1311.173
				c9.681,8.765,14.418,26.279,14.521,39.627c32.088-59.421,74.014-38.036,67.37-2.084c-7.412,40.096-52.915,76.971-87.837,107.422
				c-22.816-47.986-36.989-80.403-41.539-104.191C1354.29,1302.185,1389.993,1291.891,1411.291,1311.173z"/>
		</g>
	</g>
</g>
</svg>
